<svg width="122.88" height="87.69" xmlns="http://www.w3.org/2000/svg">
 <style type="text/css">.st0{fill-rule:evenodd;clip-rule:evenodd;}</style>

 <g>
  <title>background</title>
  <rect fill="none" id="canvas_background" height="514" width="514" y="-1" x="-1"/>
 </g>
 <g>
  <title>Layer 1</title>
  <g fill="white" id="svg_1">
   <path id="svg_2" d="m52.8,74.65c3.3,9.72 17.1,10.07 20.2,0c3.65,3.29 14.46,3.94 18.48,6.19c1.27,0.71 2.42,1.61 3.34,2.83c0.62,0.82 1.45,2.33 2.07,4.02l-67.99,0c0.63,-1.69 1.45,-3.2 2.07,-4.02c0.92,-1.22 2.07,-2.12 3.34,-2.83c4.03,-2.24 14.84,-2.9 18.49,-6.19l0,0l0,0zm-2.29,-74.65l24.79,0c1.07,0 1.94,0.87 1.94,1.94l0,17.41c0,1.07 -0.87,1.94 -1.94,1.94l-24.79,0c-1.07,0 -1.94,-0.87 -1.94,-1.94l0,-17.41c0,-1.07 0.87,-1.94 1.94,-1.94l0,0zm25.58,5.43l-26.29,0l0,14.11c0,0.15 0.06,0.28 0.16,0.38c0.1,0.1 0.23,0.16 0.38,0.16l25.21,0c0.15,0 0.28,-0.06 0.38,-0.16c0.1,-0.1 0.16,-0.23 0.16,-0.38l0,-14.11l0,0l0,0zm-2.64,-3.25c0.53,0 0.96,0.43 0.96,0.96c0,0.53 -0.43,0.96 -0.96,0.96c-0.53,0 -0.96,-0.43 -0.96,-0.96c0,-0.53 0.43,-0.96 0.96,-0.96l0,0zm-6.5,0c0.53,0 0.96,0.43 0.96,0.96c0,0.53 -0.43,0.96 -0.96,0.96c-0.53,0 -0.96,-0.43 -0.96,-0.96c0,-0.53 0.43,-0.96 0.96,-0.96l0,0zm3.25,0c0.53,0 0.96,0.43 0.96,0.96c0,0.53 -0.43,0.96 -0.96,0.96c-0.53,0 -0.96,-0.43 -0.96,-0.96c0,-0.53 0.43,-0.96 0.96,-0.96l0,0zm-10.84,9.2l-3.16,1.19l3.16,1.2l0,2.78l-4.91,-2.78l0,-2.39l4.91,-2.78l0,2.78l0,0zm12,0l0,2.39l-4.91,2.78l0,-2.78l3.16,-1.2l-3.16,-1.19l0,-2.79l4.91,2.79l0,0zm-8.51,5.95l-2.09,0l2.58,-10.06l2.09,0l-2.58,10.06l0,0zm57.04,38.31c0.04,0 0.08,0 0.12,0.01c0.25,-0.44 0.48,-0.91 0.7,-1.4c0.01,-0.01 0.01,-0.02 0.02,-0.02c0.31,-0.75 0.56,-1.52 0.71,-2.32c0.12,-0.62 0.21,-1.26 0.23,-1.91l-3.76,0c-0.07,1.91 -0.64,3.79 -1.7,5.64l3.68,0l0,0l0,0zm-0.65,1.2l-3.78,0c-1.15,1.67 -2.7,3.31 -4.63,4.93c0.3,-0.04 0.61,-0.09 0.9,-0.15c0.81,-0.16 1.59,-0.4 2.35,-0.73c0.76,-0.33 1.48,-0.71 2.14,-1.16c0.66,-0.44 1.27,-0.94 1.84,-1.51c0.42,-0.43 0.83,-0.89 1.18,-1.38l0,0l0,0zm-11.64,4.93c-1.94,-1.62 -3.49,-3.26 -4.63,-4.93l-3.78,0c0.36,0.49 0.76,0.95 1.2,1.39c0.57,0.57 1.17,1.07 1.84,1.51c0.66,0.44 1.37,0.83 2.14,1.16c0.01,0.01 0.02,0.01 0.02,0.02c0.75,0.31 1.52,0.56 2.32,0.71c0.29,0.05 0.59,0.09 0.89,0.14l0,0l0,0zm-9.2,-6.13l3.81,0c-1.06,-1.85 -1.63,-3.74 -1.7,-5.64l-3.76,0c0.03,0.66 0.11,1.29 0.23,1.91c0.16,0.81 0.4,1.59 0.73,2.35c0.2,0.48 0.43,0.94 0.69,1.38l0,0zm-1.65,-6.84l3.78,0c0.14,-1.87 0.76,-3.75 1.87,-5.64l-4,0c-0.25,0.44 -0.48,0.9 -0.69,1.39c-0.01,0.01 -0.01,0.02 -0.02,0.02c-0.31,0.75 -0.56,1.52 -0.71,2.32c-0.13,0.62 -0.21,1.25 -0.23,1.91l0,0zm2.43,-6.84l3.99,0c1.14,-1.64 2.64,-3.29 4.51,-4.95c-0.34,0.04 -0.66,0.09 -0.98,0.16c-0.81,0.16 -1.59,0.4 -2.35,0.73c-0.76,0.33 -1.48,0.71 -2.14,1.16c-0.66,0.44 -1.27,0.94 -1.84,1.51c-0.43,0.43 -0.83,0.89 -1.19,1.39l0,0l0,0zm11.55,-4.95c1.88,1.66 3.38,3.31 4.51,4.95l3.99,0c-0.36,-0.49 -0.76,-0.95 -1.2,-1.39c-0.57,-0.57 -1.17,-1.07 -1.84,-1.51c-0.66,-0.44 -1.37,-0.83 -2.14,-1.16c-0.01,-0.01 -0.02,-0.01 -0.02,-0.02c-0.75,-0.31 -1.52,-0.56 -2.32,-0.71c-0.32,-0.06 -0.65,-0.11 -0.98,-0.16l0,0l0,0zm9.29,6.15l-4,0c1.11,1.89 1.73,3.77 1.87,5.64l3.78,0c-0.03,-0.66 -0.11,-1.29 -0.23,-1.91c-0.16,-0.81 -0.4,-1.59 -0.73,-2.35c-0.21,-0.48 -0.44,-0.94 -0.69,-1.38l0,0l0,0zm-13.56,-7.17c0.89,-0.18 1.8,-0.27 2.75,-0.27c0.94,0 1.85,0.09 2.75,0.27c0.88,0.17 1.72,0.43 2.55,0.79c0.01,0 0.02,0.01 0.03,0.02c0.82,0.35 1.6,0.78 2.33,1.26c0.73,0.48 1.4,1.04 2.02,1.66c0.62,0.62 1.17,1.29 1.66,2.02c0.49,0.73 0.91,1.51 1.26,2.33c0.36,0.84 0.62,1.7 0.8,2.58c0.18,0.89 0.27,1.8 0.27,2.75c0,0.94 -0.09,1.85 -0.27,2.75c-0.17,0.88 -0.43,1.72 -0.79,2.55c0,0.01 -0.01,0.02 -0.02,0.03c-0.35,0.83 -0.78,1.6 -1.26,2.33c-0.48,0.73 -1.04,1.4 -1.66,2.02c-0.62,0.62 -1.29,1.17 -2.02,1.66c-0.73,0.49 -1.51,0.91 -2.33,1.26c-0.84,0.36 -1.7,0.62 -2.58,0.8c-0.89,0.18 -1.8,0.27 -2.75,0.27c-0.94,0 -1.85,-0.09 -2.75,-0.27c-0.88,-0.17 -1.72,-0.43 -2.55,-0.79c-0.01,0 -0.02,-0.01 -0.03,-0.02c-0.82,-0.35 -1.6,-0.78 -2.33,-1.26c-0.73,-0.48 -1.4,-1.04 -2.02,-1.66c-0.62,-0.62 -1.17,-1.29 -1.66,-2.02c-0.49,-0.73 -0.91,-1.51 -1.26,-2.33c-0.36,-0.84 -0.62,-1.7 -0.8,-2.58c-0.18,-0.89 -0.27,-1.8 -0.27,-2.75c0,-0.94 0.09,-1.85 0.27,-2.75c0.17,-0.88 0.43,-1.72 0.79,-2.55c0,-0.01 0.01,-0.02 0.02,-0.03c0.35,-0.83 0.78,-1.6 1.26,-2.33c0.48,-0.73 1.04,-1.4 1.66,-2.02c0.62,-0.62 1.29,-1.17 2.02,-1.66c0.73,-0.49 1.51,-0.91 2.33,-1.26c0.83,-0.35 1.69,-0.61 2.58,-0.8l0,0zm3.35,1.8l0,4.17l3.97,0c-1.05,-1.38 -2.37,-2.77 -3.97,-4.17l0,0zm0,5.37l0,5.64l6.88,0c-0.16,-1.85 -0.85,-3.73 -2.08,-5.64l-4.8,0l0,0zm0,6.84l0,5.64l5.01,0c1.19,-1.87 1.82,-3.75 1.89,-5.64l-6.9,0l0,0zm0,6.84l0,4.22c1.7,-1.39 3.09,-2.8 4.17,-4.22l-4.17,0l0,0zm-1.2,4.21l0,-4.22l-4.17,0c1.07,1.42 2.46,2.83 4.17,4.22l0,0zm0,-5.41l0,-5.64l-6.91,0c0.07,1.89 0.71,3.77 1.89,5.64l5.02,0l0,0zm0,-6.84l0,-5.64l-4.81,0c-1.23,1.91 -1.92,3.79 -2.07,5.64l6.88,0l0,0zm0,-6.84l0,-4.17c-1.61,1.4 -2.93,2.79 -3.97,4.17l3.97,0l0,0zm-99.18,7.44l-4.43,-6.43c0.78,-0.94 1.46,-1.94 2.05,-2.99c0.61,-1.09 1.12,-2.23 1.56,-3.42l7.8,0.75l-6.98,12.09l0,0l0,0zm1.46,0.88l7.01,-12.15l12.09,6.98l-0.96,1.66l-9.62,-5.55c-0.52,-0.3 -1.2,-0.12 -1.5,0.4c-0.3,0.52 -0.12,1.2 0.4,1.5l9.62,5.55l-0.9,1.55l-9.62,-5.55c-0.52,-0.3 -1.2,-0.12 -1.5,0.4c-0.3,0.52 -0.12,1.2 0.4,1.5l9.62,5.55l-0.9,1.55l-9.62,-5.55c-0.52,-0.3 -1.2,-0.12 -1.5,0.4c-0.3,0.52 -0.12,1.2 0.4,1.5l9.62,5.55l-0.96,1.66l-12.08,-6.95l0,0l0,0zm-7.41,-9.5l-3.48,-5.05l5.97,0.58c-0.34,0.84 -0.72,1.65 -1.15,2.42c-0.39,0.72 -0.84,1.4 -1.34,2.05l0,0l0,0zm13.89,43.38c0.51,1.14 0,2.48 -1.15,2.99c-1.14,0.51 -2.48,0 -2.99,-1.15c-1.27,-2.84 -2.31,-5.79 -3.07,-8.84c-0.75,-2.99 -1.25,-6.09 -1.48,-9.26c-0.09,-1.25 0.85,-2.34 2.11,-2.43c1.25,-0.09 2.34,0.85 2.43,2.11c0.21,2.9 0.67,5.73 1.35,8.47c0.7,2.83 1.65,5.53 2.8,8.11l0,0zm9.54,-54.16c-0.93,0.83 -2.36,0.75 -3.2,-0.18c-0.83,-0.93 -0.75,-2.36 0.18,-3.2c2.12,-1.89 4.6,-3.83 7.16,-5.5c2.3,-1.5 4.67,-2.79 6.93,-3.67c1.17,-0.45 2.48,0.13 2.93,1.3c0.45,1.17 -0.13,2.48 -1.3,2.93c-1.95,0.75 -4.04,1.9 -6.1,3.24c-2.36,1.55 -4.66,3.34 -6.6,5.08l0,0zm58.79,-9.61c-1.08,-0.63 -1.44,-2.02 -0.81,-3.1c0.63,-1.08 2.02,-1.44 3.1,-0.81c2.54,1.48 4.95,3.18 7.2,5.05c2.27,1.88 4.38,3.95 6.3,6.16c0.82,0.95 0.72,2.38 -0.23,3.2c-0.95,0.82 -2.38,0.72 -3.2,-0.23c-1.77,-2.04 -3.7,-3.93 -5.76,-5.65c-2.06,-1.7 -4.27,-3.25 -6.6,-4.62l0,0zm25.16,50.18c0.16,-1.24 1.3,-2.12 2.54,-1.95s2.12,1.3 1.95,2.54c-0.34,2.56 -0.85,5.05 -1.53,7.45c-0.69,2.47 -1.56,4.85 -2.57,7.15c-0.51,1.15 -1.85,1.67 -2.99,1.16c-1.15,-0.51 -1.67,-1.85 -1.16,-2.99c0.94,-2.12 1.73,-4.3 2.36,-6.54c0.62,-2.23 1.1,-4.51 1.4,-6.82l0,0zm-60.59,-16.06c-0.69,0.03 -1.22,0.17 -1.57,0.41c-0.2,0.14 -0.35,0.31 -0.45,0.52c-0.11,0.23 -0.16,0.51 -0.15,0.84c0.03,0.95 0.53,2.19 1.49,3.62l0.01,0.02l0,0l3.12,4.97c1.25,1.99 2.57,4.02 4.2,5.51c1.57,1.43 3.47,2.41 5.99,2.41c2.73,0.01 4.72,-1 6.34,-2.52c1.68,-1.58 3.01,-3.74 4.32,-5.89l3.52,-5.8c0.66,-1.5 0.89,-2.5 0.74,-3.09c-0.09,-0.35 -0.48,-0.52 -1.13,-0.55c-0.14,-0.01 -0.28,-0.01 -0.43,0c-0.16,0 -0.32,0.02 -0.49,0.03c-0.09,0.01 -0.18,0 -0.27,-0.02c-0.31,0.02 -0.64,0 -0.96,-0.05l1.21,-4.84c-8.94,1.41 -15.63,-5.23 -25.08,-1.33l0.68,5.79c-0.4,0.04 -0.76,0.02 -1.09,-0.03l0,0l0,0zm27.63,-1.12c0.87,0.26 1.42,0.81 1.65,1.7c0.25,0.98 -0.02,2.37 -0.86,4.27l0,0c-0.02,0.03 -0.03,0.07 -0.05,0.1l-3.56,5.86c-1.37,2.26 -2.77,4.52 -4.62,6.27c-1.93,1.8 -4.3,3 -7.54,2.99c-3.03,-0.01 -5.31,-1.17 -7.18,-2.88c-1.81,-1.65 -3.19,-3.79 -4.5,-5.87l-3.12,-4.97c-1.14,-1.7 -1.74,-3.26 -1.77,-4.54c-0.02,-0.6 0.08,-1.15 0.31,-1.63c0.23,-0.5 0.59,-0.92 1.07,-1.25c0.23,-0.15 0.48,-0.28 0.76,-0.39c-0.2,-2.69 -0.28,-5.59 -0.15,-8.43c0.07,-0.67 0.2,-1.35 0.39,-2.02c0.8,-2.85 2.8,-4.16 5.28,-5.73c1.37,-0.87 2.86,-1.53 4.43,-1.97c0.99,-0.28 -0.84,-3.45 0.18,-3.56c4.96,-0.51 12.98,4.02 16.45,7.76c1.73,1.88 2.82,3.37 3.06,6.66l-0.23,7.63l0,0l0,0z" class="st0"/>
  </g>
 </g>
</svg>